<?xml version="1.0" encoding="UTF-8"?>
<svg version="1.1" xmlns="http://www.w3.org/2000/svg" width="180" height="180">
<path d="M0 0 C12.29272599 11.54128976 18.53626902 26.28366696 19.125 43.0625 C18.70921262 59.32440642 12.76250276 73.70065606 1.40625 85.34765625 C-13.29263819 98.96183733 -29.15516228 101.54997908 -48.42724609 100.92480469 C-61.79040461 100.07852647 -74.11283057 92.32454529 -83.1875 82.75 C-87.60994412 77.22194485 -91.51843702 71.32380326 -94.1875 64.75 C-94.4865625 64.02296875 -94.785625 63.2959375 -95.09375 62.546875 C-99.6726674 49.06450709 -98.84911138 31.80777969 -92.8984375 18.96875 C-84.99026325 3.57529851 -73.45963533 -7.17829477 -57 -13.02734375 C-36.57391245 -18.6692268 -15.93514002 -13.60726565 0 0 Z M-77.0625 9.5625 C-86.97009502 21.93491134 -90.39913972 35.06599694 -89.1875 50.75 C-87.16590699 63.75558168 -80.02027102 75.79431316 -69.546875 83.7578125 C-56.88330159 92.21198581 -42.63809881 94.84108845 -27.63671875 92.1015625 C-14.24615775 88.3489981 -3.73150578 80.77678016 3.5625 69 C10.58096992 56.2405794 12.14076175 41.96224083 8.25 27.875 C3.02339283 13.1521629 -6.31974595 3.53485565 -20.1875 -3.25 C-39.62694009 -11.44875044 -62.83974719 -5.62715048 -77.0625 9.5625 Z " fill="#000000" transform="translate(130.1875,66.25)"/>
<path d="M0 0 C1.86286803 8.19661934 0.79748089 16.68297624 -3.5625 23.9375 C-7.5876284 29.38675245 -13.35529152 32.7362025 -20 34 C-21.41534778 34.06456879 -22.83337689 34.08611039 -24.25 34.0625 C-26.10625 34.0315625 -26.10625 34.0315625 -28 34 C-28.43719511 22.3252712 -28.00058696 15.59180546 -19.97265625 6.796875 C-14.18146759 1.52173285 -7.67935509 -0.14489349 0 0 Z M-15 14 C-18.43739487 17.53029744 -19.54420068 20.10015733 -20 25 C-14.95883695 22.8897457 -12.09834345 20.51472902 -9 16 C-8.126062 12.77566873 -8.126062 12.77566873 -8 10 C-10.48836598 10 -13.12633891 12.64067725 -15 14 Z " fill="#000000" transform="translate(115,14)"/>
<path d="M0 0 C1.8125 1.125 1.8125 1.125 3 3 C3.39365568 6.14924548 3.52854531 8.11909116 1.875 10.875 C-0.91106042 12.54663625 -2.81988862 12.46376624 -6 12 C-7.9375 10.375 -7.9375 10.375 -9 8 C-8.875 4.875 -8.875 4.875 -8 2 C-4.76746204 -0.15502531 -3.74849077 -0.46856135 0 0 Z M-4 5 C-4 5.66 -4 6.32 -4 7 C-3.34 7 -2.68 7 -2 7 C-2 6.34 -2 5.68 -2 5 C-2.66 5 -3.32 5 -4 5 Z " fill="#000000" transform="translate(94,140)"/>
<path d="M0 0 C1.9375 1.625 1.9375 1.625 3 4 C2.875 7.125 2.875 7.125 2 10 C-1 12 -1 12 -4.0625 11.75 C-7 11 -7 11 -9 9 C-9.33015665 5.89652746 -9.50531294 3.84218824 -7.875 1.125 C-5.08893958 -0.54663625 -3.18011138 -0.46376624 0 0 Z M-4 5 C-3.67 5.66 -3.34 6.32 -3 7 C-2.67 6.34 -2.34 5.68 -2 5 C-2.66 5 -3.32 5 -4 5 Z " fill="#000000" transform="translate(110,132)"/>
<path d="M0 0 C3.4375 -0.4375 3.4375 -0.4375 7 0 C9 1.6875 9 1.6875 10 4 C9.92196617 7.19938696 9.43745759 8.53129544 7.25 10.875 C5 12 5 12 2.375 11.8125 C0 11 0 11 -2 9 C-2.34490322 4.94738713 -2.30163882 3.45245824 0 0 Z M3 5 C3.33 5.66 3.66 6.32 4 7 C4.33 6.34 4.66 5.68 5 5 C4.34 5 3.68 5 3 5 Z " fill="#000000" transform="translate(72,132)"/>
</svg>
